# xmcd
#
# Track frame offsets:
#	150
#	18684
#	37211
#	52449
#	67680
#	81203
#	94727
#	111099
#	127496
#	141807
#	156113
#	173148
#	190181
#	205277
#	220354
#	238614
#	256903
#	269816
#	282722
#	293917
#	305346
#
# Disc length: 4100 seconds
#
# Revision: 1
# Processed by: cddbd v1.5.1PL2 Copyright (c) Steve Scherf et al.
# Submitted via: audiograbber 1.83.01
#
DISCID=55100215
DTITLE=Hall Leonard Jazz Play Along  - Volume 2 - Miles Davis
DYEAR=1900
DGENRE=Jazz
TTITLE0=All Blues (split)
TTITLE1=All Blues (stereo)
TTITLE2=Blue in Green (split)
TTITLE3=Blue in Green (stereo)
TTITLE4=Four (split)
TTITLE5=Four (stereo)
TTITLE6=Half Nelson (split)
TTITLE7=Half Nelson (stereo)
TTITLE8=Milestones (split)
TTITLE9=Milestones (stereo)
TTITLE10=Nardis (split)
TTITLE11=Nardis (stereo)
TTITLE12=Seven Steps to Heaven (split)
TTITLE13=Seven Steps to Heaven (stereo)
TTITLE14=So What (split)
TTITLE15=So What (stereo)
TTITLE16=Solar (split)
TTITLE17=Solar (stereo)
TTITLE18=Tune Up (split)
TTITLE19=Tune Up (stereo)
TTITLE20=Bb Tuning Notes
EXTD=
EXTT0=
EXTT1=
EXTT2=
EXTT3=
EXTT4=
EXTT5=
EXTT6=
EXTT7=
EXTT8=
EXTT9=
EXTT10=
EXTT11=
EXTT12=
EXTT13=
EXTT14=
EXTT15=
EXTT16=
EXTT17=
EXTT18=
EXTT19=
EXTT20=
PLAYORDER=
